<?xml version="1.0" encoding="utf-8"?>
<!-- Generator: Adobe Illustrator 15.1.0, SVG Export Plug-In . SVG Version: 6.00 Build 0)  -->
<!DOCTYPE svg PUBLIC "-//W3C//DTD SVG 1.1//EN" "http://www.w3.org/Graphics/SVG/1.1/DTD/svg11.dtd">
<svg version="1.1" xmlns="http://www.w3.org/2000/svg" xmlns:xlink="http://www.w3.org/1999/xlink" x="0px" y="0px"
	 width="47.994px" height="33.116px" viewBox="0 0 47.994 33.116" enable-background="new 0 0 47.994 33.116" xml:space="preserve">
<g id="Layer_1">
	<path fill-rule="evenodd" clip-rule="evenodd" fill="#DE6262" d="M1,18.118c0,0-1,0.445-1,0c0-0.344,0-0.627,0-1c0-0.593,1-2,1-2
		s10.415-3.833,16.997-5.999c0,0-2.165-3.748,4-7.999c4.833-3.333,10.332,1.5,5.999,4.999c-4.333,3.5-6.999,4-6.999,4
		s0.036,0.917,2,2c0,0,9.165-9.416,16.998-6.999c7.832,2.416-4.25,13.082-10.999,14.999c0,0,6.01-0.416,10.999-5
		c2.715-2.495,5.975-1.06,6.999,0c0,0,1,0.523,1,1c0,0.32,0,0.658,0,1c0,0.605-1,1-1,1s-2.433-3.74-6.999,0
		c-2.909,2.382-8.999,4.999-8.999,4.999s4.713,9.999-6,9.999c-6.999,0-8.998-1.584-8.998-7.999c0,0-8.1,4.024-10.999,0.999
		c-3.023-3.154,1.302-11.029,5.999-9.998c4.098,0.899,3,1,3,1s4.237,2.5,6.999-3c0,0-0.667-4.083-4.999-2
		C13.29,13.42,1,18.118,1,18.118z"/>
	<g>
		<g>
			<path fill-rule="evenodd" clip-rule="evenodd" fill="#EDEDED" d="M19.997,8.119c1.749,0.764,8.298-3.8,5.999-5
				C22.772,1.438,18.682,7.544,19.997,8.119z M6.999,22.117c-1.38,4.811,8.254,1.603,7.999-0.999
				C14.808,19.181,8.397,17.239,6.999,22.117z M37.995,7.119c-2.239-0.224-17.886,6.292-10.999,8.999
				c2.81,1.104,5.499,0.875,9.999-4C39.214,9.715,41.744,7.494,37.995,7.119z M26.996,20.118c0,0-2.624-0.625-3.999-4
				c0,0-2.711,1.97-4,4C18.856,20.339,26.996,20.118,26.996,20.118z M19.997,22.117c-1.1-0.238-2,1.875-2,3
				c0,5.374,11.465,8.694,10.999,1.999C28.543,20.603,25.371,23.284,19.997,22.117z"/>
		</g>
	</g>
</g>
<g id="Layer_2" display="none">
	<path display="inline" fill-rule="evenodd" clip-rule="evenodd" fill="#DCA763" d="M1,16.149c3.364,0,11.66,0.178,21.997-4
		c0.744-0.301,0,0,0,0c-0.833-6.583,9.697-11.041,12.998-9.999c8.035,2.536-9.999,11.999-9.999,11.999
		c5.635,6.354,20.998,2,20.998,2s1,0.479,1,1c0,0.348,0,0.648,0,1c0,0.535-1,1-1,1c-8.916,2.582-16.998,0-16.998,0
		c1.166,2.582,0.5,5.166-2,7.998c-2.5,2.834-17.998,6-17.998-2c0-7.998,15.998-7.998,15.998-7.998l-1.999-2c0,0-1.584-0.417-7.999,2
		c-6.416,2.416-14.998,2-14.998,2s-1-0.508-1-1c0-0.363,0-0.629,0-1C0,16.612,1,16.149,1,16.149z"/>
	<g display="inline">
		<g>
			<path fill-rule="evenodd" clip-rule="evenodd" fill="#EDEDED" d="M33.995,4.15c-2.911-0.875-10.869,5.22-7.999,6.999
				C28.171,12.497,37.389,5.17,33.995,4.15z M14.183,26.858c5.216,4.387,17.19-3.467,12.925-7.178
				C24.705,17.591,8.561,22.13,14.183,26.858z"/>
		</g>
	</g>
</g>
<g id="Layer_3" display="none">
	<path display="inline" fill-rule="evenodd" clip-rule="evenodd" fill="#6FC681" d="M1,16.118c0,0-1,0.554-1,1c0,0.314,0,0.652,0,1
		c0,0.633,1,1,1,1s13.186-1.688,16.997-3c0,0-0.543,5.999,8.999,5.999c5.063,0,12.124-2.999,19.998-2.999c0,0,1-0.523,1-1
		c0-0.35,0-0.633,0-1c0-0.564-1-1-1-1c0.006,0.005-4.704,0.074-7.999,1c-7.487,2.104-15.436,5.249-17.998,0
		c0,0,20.515-7.904,14.998-11.999c-6.132-4.551-17.998,7.999-17.998,7.999S10.561,16.118,1,16.118z"/>
	<path display="inline" fill-rule="evenodd" clip-rule="evenodd" fill="#EDEDED" d="M20.997,14.118
		c-0.134,1.808,13.436-6.499,11.998-7.999C31.559,4.62,21.122,12.431,20.997,14.118z"/>
</g>
<g id="Layer_4" display="none">
	<path display="inline" fill-rule="evenodd" clip-rule="evenodd" fill="#5A9CCC" d="M1,16.118c0,0-1,0.449-1,1c0,0.354,0,0.654,0,1
		c0,0.507,1,1,1,1h45.994c0,0,1-0.479,1-1c0-0.338,0-0.658,0-1c0-0.551-1-1-1-1H1z"/>
</g>
</svg>
