<?xml version="1.0" encoding="utf-8"?>
<!-- Generator: Adobe Illustrator 15.1.0, SVG Export Plug-In . SVG Version: 6.00 Build 0)  -->
<!DOCTYPE svg PUBLIC "-//W3C//DTD SVG 1.1//EN" "http://www.w3.org/Graphics/SVG/1.1/DTD/svg11.dtd">
<svg version="1.1" id="Layer_1" xmlns="http://www.w3.org/2000/svg" xmlns:xlink="http://www.w3.org/1999/xlink" x="0px" y="0px"
	 width="51.993px" height="51.994px" viewBox="0 0 51.993 51.994" enable-background="new 0 0 51.993 51.994" xml:space="preserve">
<path fill-rule="evenodd" clip-rule="evenodd" fill="#DE6262" d="M25.997,0c14.358,0,25.997,11.639,25.997,25.998
	c0,14.356-11.639,25.996-25.997,25.996C11.639,51.994,0,40.354,0,25.998C0,11.639,11.639,0,25.997,0z"/>
<path fill-rule="evenodd" clip-rule="evenodd" fill="#F2F2EA" d="M25.997,6.61c9.94,0,17.997,8.058,17.997,17.999
	c0,2.073-0.35,4.064-0.996,5.919c-0.26,0.751-1.002,2.079-1.002,2.079s-6.09-0.911-10,2c-2.217,1.651-4,7.999-4,7.999
	s-1.296,0-1.999,0c-0.716,0-2,0-2,0s-1.652-6.498-4-7.999c-4.05-2.589-9.999-2-9.999-2s-0.612-1.285-0.865-1.949
	C8.417,28.773,8,26.77,8,24.609C8,14.668,16.057,6.61,25.997,6.61z"/>
<g>
	<g>
		<path fill-rule="evenodd" clip-rule="evenodd" fill="#DE6262" d="M26.414,5.98h-2v7.998h2V5.98z M38.033,9.48l-5.656,5.656
			l1.414,1.414l5.656-5.656L38.033,9.48z M37.494,21.964v2h7.998v-2H37.494z M7.498,23.964h7.999v-2H7.498V23.964z M11.966,11.861
			l5.656,5.656l1.414-1.414l-5.656-5.656L11.966,11.861z M23.04,19.978c-0.002-0.06,0,4.623,0,7.999c0,4.312,4,3.999,4,3.999
			c1.992,0,3.518-3.731,2-5.999L23.04,19.978z"/>
	</g>
</g>
</svg>
