<?xml version="1.0" encoding="utf-8"?>
<!-- Generator: Adobe Illustrator 15.1.0, SVG Export Plug-In . SVG Version: 6.00 Build 0)  -->
<!DOCTYPE svg PUBLIC "-//W3C//DTD SVG 1.1//EN" "http://www.w3.org/Graphics/SVG/1.1/DTD/svg11.dtd">
<svg version="1.1" id="Layer_1" xmlns="http://www.w3.org/2000/svg" xmlns:xlink="http://www.w3.org/1999/xlink" x="0px" y="0px"
	 width="12.48px" height="11.76px" viewBox="0 0 12.48 11.76" enable-background="new 0 0 12.48 11.76" xml:space="preserve">
<path fill-rule="evenodd" clip-rule="evenodd" fill="#5A9CCC" d="M0,3.84L3.12,0h6.24l3.12,3.84v7.92H0V3.84z"/>
<path fill-rule="evenodd" clip-rule="evenodd" fill="#5A9CCC" d="M10.422,2.94"/>
<path fill-rule="evenodd" clip-rule="evenodd" fill="#F2F2EA" d="M0.72,4.14l2.76-3.36H9l2.76,3.36c0,0-2.427,0-5.04,0
	C6.583,4.14,6.805,5.1,6.24,5.1c-0.563,0-0.332-0.96-0.48-0.96C3.154,4.14,0.72,4.14,0.72,4.14z"/>
<g>
	<g>
		<path fill-rule="evenodd" clip-rule="evenodd" fill="#5A9CCC" d="M8.88,1.24H3.6v0.24h5.28V1.24z M9.36,1.96H3.12V2.2h6.24V1.96z
			 M9.84,2.681h-7.2v0.24h7.2V2.681z M2.16,3.4V3.64h8.16V3.4H2.16z"/>
	</g>
</g>
</svg>
