<?xml version="1.0" encoding="utf-8"?>
<!-- Generator: Adobe Illustrator 15.1.0, SVG Export Plug-In . SVG Version: 6.00 Build 0)  -->
<!DOCTYPE svg PUBLIC "-//W3C//DTD SVG 1.1//EN" "http://www.w3.org/Graphics/SVG/1.1/DTD/svg11.dtd">
<svg version="1.1" id="Layer_1" xmlns="http://www.w3.org/2000/svg" xmlns:xlink="http://www.w3.org/1999/xlink" x="0px" y="0px"
	 width="134px" height="38px" viewBox="0 0 134 38" enable-background="new 0 0 134 38" xml:space="preserve">
<g>
	<path fill="#5BA2D8" d="M7.59,19.639c0.163,3.268,2.235,4.318,5.487,4.318c2.275,0,4.633-0.778,4.633-2.84
		c0-2.49-4.146-2.917-8.332-4.045c-4.104-1.128-8.494-2.878-8.494-8.013c0-6.068,6.381-8.441,11.826-8.441
		c5.731,0,11.625,2.723,11.625,8.947h-7.56c0.122-2.489-2.397-3.345-4.675-3.345c-1.625,0-3.657,0.545-3.657,2.373
		c0,2.178,4.187,2.528,8.413,3.656c4.186,1.128,8.412,2.996,8.412,8.014c0,7.041-6.258,9.296-12.639,9.296
		c-6.625,0-12.6-2.8-12.6-9.919H7.59z"/>
	<path fill="#5BA2D8" d="M50.79,7.424h-8.656v21.551h-7.559V7.424h-8.657V1.201H50.79V7.424z"/>
	<path fill="#5BA2D8" d="M57.251,1.201h7.682l10.852,27.774h-7.885l-1.787-4.979H55.991l-1.828,4.979H46.4L57.251,1.201z
		 M57.739,18.627h6.584l-3.211-9.725h-0.081L57.739,18.627z"/>
	<path fill="#5BA2D8" d="M76.88,1.201h7.764l10.078,17.116h0.082V1.201h7.111v27.774h-7.762L84.074,11.665h-0.081v17.311H76.88
		V1.201z"/>
	<path fill="#DEE3E3" d="M105.581,9.881h3.493v16.206h10.142v2.888h-13.635V9.881z"/>
	<path fill="#DEE3E3" d="M123.017,21.487l-7.488-11.606h4.051l5.281,8.558l5.197-8.558h3.911l-7.46,11.606l-0.039,3.575
		c0,0,0.65,11.987-14.07,11.733l0,0c10.513-3.21,10.617-10.939,10.617-10.939V21.487z"/>
	<text transform="matrix(1.0448 0 0 1 0.0308 36.7964)" fill="#9E9E9D" font-family="'HelveticaNeueLTPro-Lt'" font-size="8.5089">Architecture Visualization</text>
</g>
</svg>
